<?xml version="1.0" encoding="UTF-8" standalone="no"?>
<!DOCTYPE svg PUBLIC "-//W3C//DTD SVG 1.1//EN"
 "http://www.w3.org/Graphics/SVG/1.1/DTD/svg11.dtd">
<!-- Generated by graphviz version 2.43.0 (0)
 -->
<!-- Title: %3 Pages: 1 -->
<svg width="311pt" height="44pt"
 viewBox="0.00 0.00 311.00 44.00" xmlns="http://www.w3.org/2000/svg" xmlns:xlink="http://www.w3.org/1999/xlink">
<g id="graph0" class="graph" transform="scale(1 1) rotate(0) translate(4 40)">
<title>%3</title>
<polygon fill="white" stroke="transparent" points="-4,4 -4,-40 307,-40 307,4 -4,4"/>
<!-- Dispatcher -->
<g id="node1" class="node">
<title>Dispatcher</title>
<polygon fill="none" stroke="black" points="95,-36 0,-36 0,0 95,0 95,-36"/>
<text text-anchor="middle" x="47.5" y="-14.3" font-family="Times,serif" font-size="14.00">Dispatcher</text>
</g>
<!-- Adapter -->
<g id="node2" class="node">
<title>Adapter</title>
<polygon fill="none" stroke="black" points="205,-36 131,-36 131,0 205,0 205,-36"/>
<text text-anchor="middle" x="168" y="-14.3" font-family="Times,serif" font-size="14.00">Adapter</text>
</g>
<!-- Dispatcher&#45;&gt;Adapter -->
<g id="edge1" class="edge">
<title>Dispatcher&#45;&gt;Adapter</title>
<path fill="none" stroke="black" d="M95.33,-18C103.61,-18 112.23,-18 120.5,-18"/>
<polygon fill="black" stroke="black" points="120.74,-21.5 130.74,-18 120.74,-14.5 120.74,-21.5"/>
</g>
<!-- Action -->
<g id="node3" class="node">
<title>Action</title>
<polygon fill="none" stroke="black" points="303,-36 241,-36 241,0 303,0 303,-36"/>
<text text-anchor="middle" x="272" y="-14.3" font-family="Times,serif" font-size="14.00">Action</text>
</g>
<!-- Adapter&#45;&gt;Action -->
<g id="edge2" class="edge">
<title>Adapter&#45;&gt;Action</title>
<path fill="none" stroke="black" d="M205.25,-18C213.55,-18 222.43,-18 230.89,-18"/>
<polygon fill="black" stroke="black" points="230.93,-21.5 240.93,-18 230.93,-14.5 230.93,-21.5"/>
</g>
</g>
</svg>
