<?xml version="1.0" encoding="UTF-8" standalone="no"?>
<!DOCTYPE svg PUBLIC "-//W3C//DTD SVG 1.1//EN"
 "http://www.w3.org/Graphics/SVG/1.1/DTD/svg11.dtd">
<!-- Generated by graphviz version 2.43.0 (0)
 -->
<!-- Title: %3 Pages: 1 -->
<svg width="790pt" height="78pt"
 viewBox="0.00 0.00 790.45 78.00" xmlns="http://www.w3.org/2000/svg" xmlns:xlink="http://www.w3.org/1999/xlink">
<g id="graph0" class="graph" transform="scale(1 1) rotate(0) translate(4 74)">
<title>%3</title>
<polygon fill="white" stroke="transparent" points="-4,4 -4,-74 786.45,-74 786.45,4 -4,4"/>
<!-- GitHub Action -->
<g id="node1" class="node">
<title>GitHub Action</title>
<ellipse fill="none" stroke="black" cx="76.69" cy="-18" rx="76.89" ry="18"/>
<text text-anchor="middle" x="76.69" y="-14.3" font-family="Times,serif" font-size="14.00">GitHub Action</text>
</g>
<!-- Dispatcher -->
<g id="node2" class="node">
<title>Dispatcher</title>
<ellipse fill="none" stroke="black" cx="252.13" cy="-52" rx="61.99" ry="18"/>
<text text-anchor="middle" x="252.13" y="-48.3" font-family="Times,serif" font-size="14.00">Dispatcher</text>
</g>
<!-- GitHub Action&#45;&gt;Dispatcher -->
<g id="edge1" class="edge">
<title>GitHub Action&#45;&gt;Dispatcher</title>
<path fill="none" stroke="black" d="M136.41,-29.51C153.74,-32.91 172.75,-36.63 190.22,-40.06"/>
<polygon fill="black" stroke="black" points="189.82,-43.55 200.3,-42.04 191.16,-36.68 189.82,-43.55"/>
</g>
<!-- LabVIEW script -->
<g id="node3" class="node">
<title>LabVIEW script</title>
<ellipse fill="none" stroke="black" cx="566.07" cy="-52" rx="83.39" ry="18"/>
<text text-anchor="middle" x="566.07" y="-48.3" font-family="Times,serif" font-size="14.00">LabVIEW script</text>
</g>
<!-- Dispatcher&#45;&gt;LabVIEW script -->
<g id="edge2" class="edge">
<title>Dispatcher&#45;&gt;LabVIEW script</title>
<path fill="none" stroke="black" d="M314.02,-52C359.15,-52 421.45,-52 472.7,-52"/>
<polygon fill="black" stroke="black" points="472.79,-55.5 482.79,-52 472.79,-48.5 472.79,-55.5"/>
</g>
<!-- Outputs -->
<g id="node4" class="node">
<title>Outputs</title>
<ellipse fill="none" stroke="black" cx="734.36" cy="-18" rx="48.19" ry="18"/>
<text text-anchor="middle" x="734.36" y="-14.3" font-family="Times,serif" font-size="14.00">Outputs</text>
</g>
<!-- LabVIEW script&#45;&gt;Outputs -->
<g id="edge3" class="edge">
<title>LabVIEW script&#45;&gt;Outputs</title>
<path fill="none" stroke="black" d="M627.1,-39.73C645.07,-36.05 664.59,-32.06 681.95,-28.51"/>
<polygon fill="black" stroke="black" points="682.79,-31.91 691.89,-26.48 681.39,-25.05 682.79,-31.91"/>
</g>
<!-- Outputs&#45;&gt;GitHub Action -->
<g id="edge4" class="edge">
<title>Outputs&#45;&gt;GitHub Action</title>
<path fill="none" stroke="black" d="M685.86,-18C576.14,-18 303.8,-18 163.8,-18"/>
<polygon fill="black" stroke="black" points="163.55,-14.5 153.55,-18 163.55,-21.5 163.55,-14.5"/>
<text text-anchor="middle" x="398.38" y="-21.8" font-family="Times,serif" font-size="14.00">Artifacts &amp; results</text>
</g>
</g>
</svg>
